<?xml version="1.0" standalone="no"?>
<!DOCTYPE svg PUBLIC "-//W3C//DTD SVG 20010904//EN"
 "http://www.w3.org/TR/2001/REC-SVG-20010904/DTD/svg10.dtd">
<svg version="1.0" xmlns="http://www.w3.org/2000/svg"
 width="700.000000pt" height="700.000000pt" viewBox="0 0 700.000000 700.000000"
 preserveAspectRatio="xMidYMid meet">
<metadata>
Created by potrace 1.11, written by Peter Selinger 2001-2013
</metadata>
<g transform="translate(0.000000,700.000000) scale(0.100000,-0.100000)"
fill="#000000" stroke="none">
<path d="M2081 6984 c-185 -48 -316 -209 -325 -397 -6 -133 33 -235 130 -342
11 -12 44 -50 74 -85 30 -36 57 -67 60 -70 3 -3 46 -52 95 -110 50 -58 98
-114 108 -125 10 -11 33 -37 50 -58 18 -21 45 -52 60 -69 16 -16 26 -32 23
-35 -3 -3 -400 -5 -883 -6 -988 0 -957 2 -1110 -73 -157 -77 -269 -207 -331
-383 l-27 -76 -2 -2060 c-2 -1762 0 -2071 12 -2134 43 -220 216 -414 437 -490
29 -10 56 -19 61 -19 4 0 32 -4 63 -8 30 -3 109 -7 174 -7 99 -1 119 -4 122
-16 2 -9 4 -107 3 -218 l0 -203 330 1 330 0 143 218 144 218 1679 -1 c1482 -1
1681 -3 1689 -16 5 -8 69 -106 142 -217 l133 -203 328 0 c254 0 327 3 328 13
1 6 2 104 3 217 l1 205 140 2 c81 1 172 8 215 17 188 39 363 175 447 346 77
158 72 -4 71 2275 0 1978 -1 2042 -19 2113 -64 245 -246 424 -488 481 -74 17
-137 18 -965 17 -487 -1 -886 1 -886 4 0 6 33 45 205 244 72 83 142 164 155
180 27 32 99 115 136 158 207 239 107 607 -191 706 -64 21 -185 24 -247 6
-114 -34 -157 -65 -274 -201 -42 -49 -88 -102 -103 -118 -14 -17 -53 -62 -86
-100 -33 -39 -72 -83 -86 -100 -15 -16 -129 -149 -254 -295 -378 -439 -388
-450 -395 -450 -4 0 -35 33 -70 73 -34 39 -83 96 -109 126 -61 71 -78 91 -103
121 -12 14 -49 56 -82 95 -34 38 -71 81 -82 95 -21 24 -129 149 -239 275 -29
33 -85 98 -125 145 -188 220 -186 218 -231 256 -92 77 -254 110 -378 78z
m1609 -2178 c591 -6 949 -16 1150 -31 36 -3 99 -7 140 -10 41 -3 91 -8 110
-10 19 -2 58 -7 85 -10 67 -7 156 -25 177 -36 41 -22 65 -174 93 -579 26 -376
26 -1734 0 -2135 -13 -191 -15 -220 -30 -350 -2 -16 -6 -48 -10 -70 -23 -143
-33 -159 -109 -175 -87 -18 -90 -18 -256 -35 -71 -7 -319 -22 -495 -30 -596
-25 -2343 -25 -2809 0 -39 2 -125 7 -191 10 -66 4 -133 8 -150 9 -16 2 -66 7
-110 10 -104 9 -199 23 -254 38 -37 10 -46 17 -62 52 -10 23 -20 55 -23 71 -9
56 -19 135 -30 230 -3 22 -8 90 -11 150 -3 61 -8 135 -10 165 -23 317 -23
1702 0 2000 2 25 6 90 9 145 17 278 47 455 83 487 26 23 180 51 343 63 41 3
102 7 135 10 58 4 222 13 415 21 52 2 336 7 630 10 294 4 536 7 537 8 1 1 30
1 65 -1 35 -1 295 -4 578 -7z m2568 -890 c17 -9 44 -34 58 -56 24 -36 26 -49
27 -137 0 -113 -12 -146 -69 -190 -32 -24 -47 -28 -130 -31 -100 -5 -140 5
-182 42 -43 38 -55 75 -55 167 1 132 24 179 103 212 48 21 204 16 248 -7z m15
-886 c54 -37 69 -77 70 -184 1 -173 -54 -225 -236 -220 -77 1 -92 5 -127 29
-56 39 -72 79 -72 189 -1 107 19 158 75 192 66 39 229 36 290 -6z"/>
</g>
</svg>
